<?xml version="1.0" encoding="UTF-8"?>
<svg xmlns="http://www.w3.org/2000/svg" xmlns:xlink="http://www.w3.org/1999/xlink" width="40pt" height="40pt" viewBox="0 0 40 40" version="1.1">
<g id="surface1">
<path style=" stroke:none;fill-rule:nonzero;fill:rgb(0%,0%,0%);fill-opacity:1;" d="M 10.625 4.375 L 11.25 4.375 C 11.59375 4.375 11.875 4.09375 11.875 3.75 C 11.875 3.40625 11.59375 3.125 11.25 3.125 L 10.625 3.125 C 10.28125 3.125 10 3.40625 10 3.75 C 10 4.09375 10.28125 4.375 10.625 4.375 Z M 10.625 4.375 "/>
<path style=" stroke:none;fill-rule:nonzero;fill:rgb(0%,0%,0%);fill-opacity:1;" d="M 13.75 4.375 L 14.375 4.375 C 14.71875 4.375 15 4.09375 15 3.75 C 15 3.40625 14.71875 3.125 14.375 3.125 L 13.75 3.125 C 13.40625 3.125 13.125 3.40625 13.125 3.75 C 13.125 4.09375 13.40625 4.375 13.75 4.375 Z M 13.75 4.375 "/>
<path style=" stroke:none;fill-rule:nonzero;fill:rgb(0%,0%,0%);fill-opacity:1;" d="M 38.125 7.5 L 23.75 7.5 L 23.75 4.375 C 23.75 2.648438 22.351562 1.25 20.625 1.25 L 4.375 1.25 C 2.648438 1.25 1.25 2.648438 1.25 4.375 L 1.25 32.5 C 1.25 34.226562 2.648438 35.625 4.375 35.625 L 16.25 35.625 L 16.25 38.125 C 16.25 38.46875 16.53125 38.75 16.875 38.75 L 29.375 38.75 C 29.71875 38.75 30 38.46875 30 38.125 L 30 34.375 C 30 34.03125 29.71875 33.75 29.375 33.75 L 28.75 33.75 L 28.75 33.507812 C 28.75 33.382812 28.789062 33.261719 28.855469 33.15625 L 29.261719 32.542969 C 29.742188 31.824219 30 30.976562 30 30.113281 L 30 23.75 L 38.125 23.75 C 38.46875 23.75 38.75 23.46875 38.75 23.125 L 38.75 8.125 C 38.75 7.78125 38.46875 7.5 38.125 7.5 Z M 2.5 4.375 C 2.503906 3.339844 3.339844 2.503906 4.375 2.5 L 20.625 2.5 C 21.660156 2.503906 22.496094 3.339844 22.5 4.375 L 22.5 5 L 2.5 5 Z M 2.5 6.25 L 22.5 6.25 L 22.5 7.5 L 20.625 7.5 C 20.28125 7.5 20 7.78125 20 8.125 L 20 15.117188 C 19.246094 15.410156 18.75 16.136719 18.75 16.945312 L 18.75 22.5 L 18.125 22.5 C 17.089844 22.503906 16.253906 23.339844 16.25 24.375 L 16.25 29.375 L 2.5 29.375 Z M 16.25 34.375 L 4.375 34.375 C 3.339844 34.371094 2.503906 33.535156 2.5 32.5 L 2.5 30.625 L 16.289062 30.625 C 16.367188 31.3125 16.605469 31.96875 16.988281 32.542969 L 17.394531 33.15625 C 17.460938 33.261719 17.5 33.382812 17.5 33.507812 L 17.5 33.75 L 16.875 33.75 C 16.53125 33.75 16.25 34.03125 16.25 34.375 Z M 28.75 37.5 L 17.5 37.5 L 17.5 35 L 28.75 35 Z M 28.75 30.113281 C 28.75 30.730469 28.566406 31.335938 28.226562 31.851562 L 27.8125 32.460938 C 27.605469 32.773438 27.5 33.136719 27.5 33.507812 L 27.5 33.75 L 18.75 33.75 L 18.75 33.507812 C 18.75 33.136719 18.644531 32.773438 18.4375 32.460938 L 18.023438 31.851562 C 17.683594 31.335938 17.5 30.730469 17.5 30.113281 L 17.5 24.375 C 17.5 24.03125 17.78125 23.75 18.125 23.75 L 18.75 23.75 L 18.75 26.875 C 18.75 27.21875 19.03125 27.5 19.375 27.5 C 19.71875 27.5 20 27.21875 20 26.875 L 20 16.945312 C 19.988281 16.601562 20.234375 16.308594 20.570312 16.25 C 20.757812 16.234375 20.941406 16.304688 21.070312 16.445312 C 21.1875 16.554688 21.253906 16.710938 21.25 16.875 L 21.25 24.375 C 21.25 24.71875 21.53125 25 21.875 25 C 22.21875 25 22.5 24.71875 22.5 24.375 L 22.5 21.25 C 22.5 20.90625 22.78125 20.625 23.125 20.625 C 23.292969 20.625 23.457031 20.695312 23.570312 20.820312 C 23.6875 20.929688 23.753906 21.085938 23.75 21.25 L 23.75 24.375 C 23.75 24.71875 24.03125 25 24.375 25 C 24.71875 25 25 24.71875 25 24.375 L 25 21.875 C 25 21.53125 25.28125 21.25 25.625 21.25 C 25.792969 21.25 25.957031 21.320312 26.070312 21.445312 C 26.1875 21.554688 26.253906 21.710938 26.25 21.875 L 26.25 24.375 C 26.25 24.71875 26.53125 25 26.875 25 C 27.21875 25 27.5 24.71875 27.5 24.375 L 27.5 23.125 C 27.5 22.78125 27.78125 22.5 28.125 22.5 C 28.292969 22.5 28.457031 22.570312 28.570312 22.695312 C 28.6875 22.804688 28.753906 22.960938 28.75 23.125 Z M 37.5 22.5 L 29.886719 22.5 C 29.796875 22.238281 29.648438 22.003906 29.457031 21.804688 C 28.925781 21.28125 28.136719 21.117188 27.4375 21.382812 C 27.351562 21.070312 27.1875 20.785156 26.957031 20.554688 C 26.355469 19.972656 25.445312 19.847656 24.707031 20.242188 C 24.636719 20.128906 24.550781 20.023438 24.457031 19.929688 C 23.941406 19.425781 23.183594 19.25 22.5 19.480469 L 22.5 16.875 C 22.503906 16.378906 22.308594 15.90625 21.957031 15.554688 C 21.757812 15.359375 21.515625 15.207031 21.25 15.113281 L 21.25 8.75 L 37.5 8.75 Z M 37.5 22.5 "/>
<path style=" stroke:none;fill-rule:nonzero;fill:rgb(0%,0%,0%);fill-opacity:1;" d="M 6.25 20.625 L 5.625 20.625 C 5.28125 20.625 5 20.90625 5 21.25 C 5 21.59375 5.28125 21.875 5.625 21.875 L 6.25 21.875 C 6.59375 21.875 6.875 21.59375 6.875 21.25 C 6.875 20.90625 6.59375 20.625 6.25 20.625 Z M 6.25 20.625 "/>
<path style=" stroke:none;fill-rule:nonzero;fill:rgb(0%,0%,0%);fill-opacity:1;" d="M 15 20.625 L 8.75 20.625 C 8.40625 20.625 8.125 20.90625 8.125 21.25 C 8.125 21.59375 8.40625 21.875 8.75 21.875 L 15 21.875 C 15.34375 21.875 15.625 21.59375 15.625 21.25 C 15.625 20.90625 15.34375 20.625 15 20.625 Z M 15 20.625 "/>
<path style=" stroke:none;fill-rule:nonzero;fill:rgb(0%,0%,0%);fill-opacity:1;" d="M 6.25 23.125 L 5.625 23.125 C 5.28125 23.125 5 23.40625 5 23.75 C 5 24.09375 5.28125 24.375 5.625 24.375 L 6.25 24.375 C 6.59375 24.375 6.875 24.09375 6.875 23.75 C 6.875 23.40625 6.59375 23.125 6.25 23.125 Z M 6.25 23.125 "/>
<path style=" stroke:none;fill-rule:nonzero;fill:rgb(0%,0%,0%);fill-opacity:1;" d="M 13.75 23.125 L 8.75 23.125 C 8.40625 23.125 8.125 23.40625 8.125 23.75 C 8.125 24.09375 8.40625 24.375 8.75 24.375 L 13.75 24.375 C 14.09375 24.375 14.375 24.09375 14.375 23.75 C 14.375 23.40625 14.09375 23.125 13.75 23.125 Z M 13.75 23.125 "/>
<path style=" stroke:none;fill-rule:nonzero;fill:rgb(0%,0%,0%);fill-opacity:1;" d="M 6.25 25.625 L 5.625 25.625 C 5.28125 25.625 5 25.90625 5 26.25 C 5 26.59375 5.28125 26.875 5.625 26.875 L 6.25 26.875 C 6.59375 26.875 6.875 26.59375 6.875 26.25 C 6.875 25.90625 6.59375 25.625 6.25 25.625 Z M 6.25 25.625 "/>
<path style=" stroke:none;fill-rule:nonzero;fill:rgb(0%,0%,0%);fill-opacity:1;" d="M 13.75 25.625 L 8.75 25.625 C 8.40625 25.625 8.125 25.90625 8.125 26.25 C 8.125 26.59375 8.40625 26.875 8.75 26.875 L 13.75 26.875 C 14.09375 26.875 14.375 26.59375 14.375 26.25 C 14.375 25.90625 14.09375 25.625 13.75 25.625 Z M 13.75 25.625 "/>
<path style=" stroke:none;fill-rule:nonzero;fill:rgb(0%,0%,0%);fill-opacity:1;" d="M 29.375 18.125 C 29.375 18.816406 28.816406 19.375 28.125 19.375 C 27.433594 19.375 26.875 18.816406 26.875 18.125 C 26.875 17.433594 27.433594 16.875 28.125 16.875 C 28.816406 16.875 29.375 17.433594 29.375 18.125 Z M 29.375 18.125 "/>
<path style=" stroke:none;fill-rule:nonzero;fill:rgb(0%,0%,0%);fill-opacity:1;" d="M 32.5 18.125 C 32.5 18.816406 31.941406 19.375 31.25 19.375 C 30.558594 19.375 30 18.816406 30 18.125 C 30 17.433594 30.558594 16.875 31.25 16.875 C 31.941406 16.875 32.5 17.433594 32.5 18.125 Z M 32.5 18.125 "/>
<path style=" stroke:none;fill-rule:nonzero;fill:rgb(0%,0%,0%);fill-opacity:1;" d="M 25.625 11.875 L 26.324219 11.875 L 26.410156 12.570312 L 26.410156 12.585938 L 26.878906 16.328125 C 26.917969 16.640625 27.183594 16.875 27.5 16.875 L 31.875 16.875 C 32.144531 16.875 32.382812 16.703125 32.46875 16.449219 L 33.71875 12.699219 C 33.78125 12.507812 33.75 12.296875 33.632812 12.132812 C 33.515625 11.972656 33.324219 11.875 33.125 11.875 L 27.582031 11.875 L 27.496094 11.171875 C 27.457031 10.859375 27.191406 10.625 26.875 10.625 L 25.625 10.625 C 25.28125 10.625 25 10.90625 25 11.25 C 25 11.59375 25.28125 11.875 25.625 11.875 Z M 32.257812 13.125 L 31.425781 15.625 L 28.050781 15.625 L 27.738281 13.125 Z M 32.257812 13.125 "/>
<path style=" stroke:none;fill-rule:nonzero;fill:rgb(0%,0%,0%);fill-opacity:1;" d="M 13.75 31.875 L 11.25 31.875 C 10.90625 31.875 10.625 32.15625 10.625 32.5 C 10.625 32.84375 10.90625 33.125 11.25 33.125 L 13.75 33.125 C 14.09375 33.125 14.375 32.84375 14.375 32.5 C 14.375 32.15625 14.09375 31.875 13.75 31.875 Z M 13.75 31.875 "/>
<path style=" stroke:none;fill-rule:nonzero;fill:rgb(0%,0%,0%);fill-opacity:1;" d="M 18.277344 9.394531 L 15.789062 8.769531 C 15.738281 8.757812 15.6875 8.75 15.636719 8.75 L 14.375 8.75 C 14.03125 8.75 13.75 9.03125 13.75 9.375 C 13.75 10.066406 13.191406 10.625 12.5 10.625 C 11.808594 10.625 11.25 10.066406 11.25 9.375 C 11.25 9.03125 10.96875 8.75 10.625 8.75 L 9.359375 8.75 C 9.308594 8.75 9.257812 8.757812 9.207031 8.769531 L 6.722656 9.394531 C 6.445312 9.464844 6.25 9.714844 6.25 10 L 6.25 12.5 C 6.25 12.691406 6.339844 12.875 6.492188 12.992188 C 6.640625 13.109375 6.839844 13.152344 7.027344 13.105469 L 8.75 12.675781 L 8.75 18.125 C 8.75 18.46875 9.03125 18.75 9.375 18.75 L 15.625 18.75 C 15.96875 18.75 16.25 18.46875 16.25 18.125 L 16.25 12.675781 L 17.972656 13.105469 C 18.160156 13.152344 18.359375 13.109375 18.507812 12.992188 C 18.660156 12.875 18.75 12.691406 18.75 12.5 L 18.75 10 C 18.75 9.714844 18.554688 9.464844 18.277344 9.394531 Z M 17.5 11.699219 L 15.777344 11.269531 C 15.589844 11.222656 15.394531 11.265625 15.242188 11.382812 C 15.089844 11.5 15 11.683594 15 11.875 L 15 17.5 L 10 17.5 L 10 11.875 C 10 11.683594 9.910156 11.5 9.757812 11.382812 C 9.609375 11.265625 9.410156 11.222656 9.222656 11.269531 L 7.5 11.699219 L 7.5 10.488281 L 9.4375 10 L 10.078125 10 C 10.363281 11.105469 11.359375 11.878906 12.5 11.878906 C 13.640625 11.878906 14.636719 11.105469 14.921875 10 L 15.558594 10 L 17.5 10.488281 Z M 17.5 11.699219 "/>
</g>
</svg>
